<?xml version="1.0" encoding="utf-8"?>
<!-- Generator: Adobe Illustrator 16.0.3, SVG Export Plug-In . SVG Version: 6.00 Build 0)  -->
<!DOCTYPE svg PUBLIC "-//W3C//DTD SVG 1.1//EN" "http://www.w3.org/Graphics/SVG/1.1/DTD/svg11.dtd">
<svg version="1.1" id="Layer_1" xmlns="http://www.w3.org/2000/svg" xmlns:xlink="http://www.w3.org/1999/xlink" x="0px" y="0px"
	 width="250px" height="300px" viewBox="0 0 250 300" enable-background="new 0 0 250 300" xml:space="preserve">
<g>
	<path fill="#231F20" d="M237.5,126.541c0,48.057-30.138,89.073-72.575,105.208l-39.888,54.18l-39.883-54.18
		C42.713,215.613,12.5,174.598,12.5,126.541c0-62.134,50.403-112.468,112.537-112.468C187.166,14.072,237.5,64.406,237.5,126.541z"
		/>
	<path fill="#FFFFFF" d="M147.627,103.371c0.989,5.386,0.439,101.998,0,104.891c-0.444,2.937-3.401,4.859-4.707,5.335
		c-1.304,0.469-11.226,1.941-19.04,1.941c-7.808,0-17.271-1.574-18.402-2.165c-1.129-0.579-2.39-2.156-2.938-5.582
		c-0.575-3.563-1.286-98.338,0-104.894c0.802-4.098,3.331-10.601,6.989-15.401c1.122-1.476,2.401-2.846,3.782-4.082
		c1.141-1.024,2.586-1.862,3.221-3.325c0.549-1.269,0.915-3.024,0.915-4.409c0-10.295,0-34.768,0-34.768s3.391-0.665,8.165-0.665
		c4.767,0,8.114,0.665,8.114,0.665s0,24.978,0,35.031c0.006,0.04,0.006,0.08,0.006,0.117c-0.312,3.761,2.404,6.08,4.616,8.675
		c0.756,0.886,1.469,1.809,2.134,2.761C144.002,92.549,146.848,99.102,147.627,103.371z"/>
</g>
</svg>
