<?xml version="1.0" encoding="utf-8"?>
<!-- Generator: Adobe Illustrator 16.0.3, SVG Export Plug-In . SVG Version: 6.00 Build 0)  -->
<!DOCTYPE svg PUBLIC "-//W3C//DTD SVG 1.1//EN" "http://www.w3.org/Graphics/SVG/1.1/DTD/svg11.dtd">
<svg version="1.1" id="Layer_1" xmlns="http://www.w3.org/2000/svg" xmlns:xlink="http://www.w3.org/1999/xlink" x="0px" y="0px"
	 width="250px" height="300px" viewBox="0 0 250 300" enable-background="new 0 0 250 300" xml:space="preserve">
<g>
	<g>
		<path fill="#603813" d="M237.5,126.541c0,48.057-30.138,89.073-72.573,105.208l-39.887,54.18l-39.885-54.18
			C42.715,215.613,12.5,174.598,12.5,126.541c0-62.134,50.403-112.468,112.54-112.468C187.166,14.072,237.5,64.406,237.5,126.541z"
			/>
		<path fill="#3A1C00" d="M125.04,290.425l-41.569-56.468c-21.311-8.267-39.533-22.536-52.739-41.308
			c-13.671-19.434-20.898-42.293-20.898-66.109c0-63.485,51.681-115.134,115.206-115.134c63.48,0,115.126,51.649,115.126,115.134
			c0,23.822-7.213,46.681-20.857,66.107c-13.188,18.775-31.396,33.045-52.697,41.31L125.04,290.425z M125.04,16.738
			c-60.585,0-109.874,49.257-109.874,109.802c0,45.307,28.507,86.585,70.937,102.715l0.734,0.279l38.204,51.896l38.205-51.896
			l0.734-0.279c42.38-16.113,70.854-57.392,70.854-102.715C234.834,65.995,185.581,16.738,125.04,16.738z"/>
	</g>
	<g>
		<path fill="#FFFFFF" d="M204.751,163.122v-17.377c0,0-5.713,1.075-14.378,2.468v20.537
			C199.038,165.576,204.751,163.122,204.751,163.122z"/>
		<path fill="#FFFFFF" d="M59.791,145.745v17.377c0,0,7.359,3.151,18.029,6.938V148.79C67.15,147.123,59.791,145.745,59.791,145.745
			z"/>
		<path fill="#FFFFFF" d="M132.273,154.455c-13.281,0-30.313-1.865-44.797-3.87v23.568c14.484,4.548,31.516,8.785,44.797,8.785
			c14.446,0,33.266-4.981,48.446-9.949v-22.912C165.539,152.261,146.72,154.455,132.273,154.455z"/>
		<path fill="#FFFFFF" d="M204.751,137.54V98.932c0,0-5.718-1.072-14.378-2.465v41.073H204.751z"/>
		<path fill="#FFFFFF" d="M59.791,71.89v17.383c0,0,7.356-1.386,18.029-3.053V64.943C67.147,68.736,59.791,71.89,59.791,71.89z"/>
		<path fill="#FFFFFF" d="M132.273,80.563c14.409,0,33.249,2.194,48.446,4.377V62.029c-15.197-4.963-34.037-9.949-48.446-9.949
			c-13.313,0-30.331,4.223-44.797,8.768v23.571C101.942,82.422,118.96,80.563,132.273,80.563z"/>
		<path fill="#FFFFFF" d="M204.751,89.273V71.89c0,0-5.718-2.447-14.378-5.62v20.534C199.033,88.201,204.751,89.273,204.751,89.273z
			"/>
		<path fill="#FFFFFF" d="M180.74,122.322v19.816c-14.478,1.984-31.493,3.843-44.823,3.843c-14.414,0-33.246-2.197-48.435-4.394
			V94.1c14.446-2.026,31.491-3.885,44.791-3.885c14.409,0,33.239,2.197,48.43,4.394v27.714H180.74z"/>
		<path fill="#FFFFFF" d="M59.791,109.775v13.393h-9.616c-1.963,0-3.574,1.755-3.574,3.902v6.582c0,2.141-1.609,3.888-3.569,3.888
			h-5.114c-1.96,0-3.562-1.747-3.562-3.888v-19.978c0-2.138,1.602-3.899,3.562-3.899H59.791z"/>
		<path fill="#FFFFFF" d="M77.828,95.876v43.6c-10.665-1.689-18.021-3.043-18.021-3.043V98.919
			C59.808,98.919,67.163,97.565,77.828,95.876z"/>
	</g>
</g>
</svg>
