<?xml version="1.0" encoding="utf-8"?>
<!-- Generator: Adobe Illustrator 16.0.3, SVG Export Plug-In . SVG Version: 6.00 Build 0)  -->
<!DOCTYPE svg PUBLIC "-//W3C//DTD SVG 1.1//EN" "http://www.w3.org/Graphics/SVG/1.1/DTD/svg11.dtd">
<svg version="1.1" id="Layer_1" xmlns="http://www.w3.org/2000/svg" xmlns:xlink="http://www.w3.org/1999/xlink" x="0px" y="0px"
	 width="250px" height="300px" viewBox="0 0 250 300" enable-background="new 0 0 250 300" xml:space="preserve">
<g>
	<g>
		<path fill="#93243B" d="M237.5,126.542c0,48.057-30.138,89.072-72.578,105.208l-39.888,54.178l-39.882-54.178
			C42.712,215.613,12.5,174.599,12.5,126.542c0-62.134,50.403-112.468,112.534-112.468C187.166,14.073,237.5,64.407,237.5,126.542z"
			/>
		<path fill="#530018" d="M125.034,290.424l-41.566-56.466c-21.31-8.268-39.532-22.537-52.737-41.309
			c-13.67-19.433-20.896-42.292-20.896-66.108c0-63.485,51.679-115.134,115.2-115.134c63.483,0,115.132,51.649,115.132,115.134
			c0,23.822-7.213,46.681-20.858,66.107c-13.188,18.774-31.398,33.045-52.701,41.31L125.034,290.424z M125.034,16.739
			c-60.582,0-109.868,49.257-109.868,109.802c0,45.306,28.506,86.584,70.934,102.715l0.734,0.279l38.2,51.894l38.206-51.894
			l0.734-0.279c42.383-16.113,70.859-57.392,70.859-102.715C234.834,65.996,185.578,16.739,125.034,16.739z"/>
	</g>
	<g>
		<path fill="#FFFFFF" d="M132.916,190.411c-0.079-0.016-0.159-0.018-0.235-0.04c-1.045-0.299-1.512-1.236-1.932-2.265
			c-0.03-0.156-0.049-0.285-0.074-0.438c0,0-0.073-40.382-0.094-50.478c0-0.089,0.015-0.214,0.021-0.303
			c-0.006-1.562,1.396-2.03,2.329-2.342c0.135-0.031,0.261-0.052,0.396-0.076c10.261-2.073,19.658-7.993,27.051-17.164
			c9.027-11.216,13.979-26.031,13.956-41.726c-0.019-7.319-1.103-14.424-3.232-21.171c-0.117-0.349-0.228-0.709-0.347-1.062
			c-1.444-3.113-4.258-5.449-7.674-5.853c-0.202-0.028-0.392-0.049-0.575-0.058c-15.551,0.027-56.698,0.11-73.699,0.141
			c-0.355,0-0.705,0.003-1.044,0.003c-4.083,0.012-6.888,2.354-8.599,5.948c-0.123,0.352-0.232,0.704-0.343,1.062
			c-2.106,6.75-3.168,13.86-3.153,21.173c0.03,15.7,5.044,30.5,14.114,41.68c7.522,9.263,17.091,15.177,27.516,17.133
			c0.062,0.009,0.16,0.037,0.257,0.064c1.344,0.242,2.277,1.172,2.1,2.348c0,0.098,0,0.19,0,0.276
			c0.019,10.163,0.098,50.15,0.098,50.15c0,0.089-0.002,0.211-0.009,0.33c-0.272,1.412-0.89,2.375-1.849,2.626
			c-0.156,0.024-0.213,0.056-0.37,0.076c-16.978,0.601-29.724,3.059-29.724,5.977c0.012,3.342,16.772,6.021,37.446,5.978
			c20.672-0.039,37.428-2.782,37.422-6.121C162.663,193.358,149.902,190.95,132.916,190.411z M87.361,75.743
			c-0.009-5.682,0.753-11.21,2.265-16.469l70.688-0.138c1.533,5.256,2.308,10.778,2.319,16.466
			c0.056,26.426-16.787,47.958-37.542,47.998C104.343,123.643,87.416,102.175,87.361,75.743z"/>
		<path fill="#FFFFFF" d="M152.921,75.413c-0.67-0.777-55.452-0.457-55.942,0.107c-0.485,0.569-0.842,5.911-0.114,13.643
			c1.51,15.994,15.382,27.471,28.166,27.44c12.783-0.022,25.702-11.994,28.04-27.887C153.885,83.145,153.603,76.187,152.921,75.413z
			"/>
	</g>
</g>
</svg>
