<?xml version="1.0" encoding="utf-8"?>
<!-- Generator: Adobe Illustrator 16.0.3, SVG Export Plug-In . SVG Version: 6.00 Build 0)  -->
<!DOCTYPE svg PUBLIC "-//W3C//DTD SVG 1.1//EN" "http://www.w3.org/Graphics/SVG/1.1/DTD/svg11.dtd">
<svg version="1.1" id="Layer_1" xmlns="http://www.w3.org/2000/svg" xmlns:xlink="http://www.w3.org/1999/xlink" x="0px" y="0px"
	 width="250px" height="300px" viewBox="0 0 250 300" enable-background="new 0 0 250 300" xml:space="preserve">
<g>
	<path fill="#406425" stroke="#2E521A" stroke-width="1.9578" stroke-miterlimit="10" d="M240.167,125.984
		c0,49.196-30.853,91.183-74.294,107.705l-40.83,55.463l-40.834-55.463C40.763,217.167,9.833,175.18,9.833,125.984
		c0-63.608,51.601-115.135,115.21-115.135C188.641,10.849,240.167,62.376,240.167,125.984z"/>
	<g>
		<path fill="#FFFFFF" d="M89.959,39.111l0.142-0.047l3.834-1.18c4.884-1.504,8.598-2.511,9.759-2.818
			c-1.229-4.005-1.746-5.685-1.938-6.313c0,0-4.272,0.554-9.978,2.308l-3.694,1.138l-0.124,0.06
			c-4.922,1.621-8.164,3.251-8.164,3.251c0.195,0.628,0.708,2.306,1.939,6.31C82.758,41.463,85.803,40.416,89.959,39.111z"/>
		<path fill="#FFFFFF" d="M138.527,90.41c-2.125-3.733-6.916-9.228-12.451-12.667c-1.698-1.056-3.542-1.956-5.46-2.692
			c-1.583-0.608-3.448-0.932-4.602-2.145c-0.994-1.053-1.928-2.646-2.348-4.001c-2.165-7.029-6.386-20.764-8.752-28.447
			c-1.542,0.567-4.841,1.722-10.6,3.496c-5.476,1.686-8.479,2.478-9.93,2.833c2.365,7.689,6.585,21.41,8.749,28.434
			c0.416,1.357,0.535,3.2,0.299,4.631c-0.266,1.65-1.629,2.964-2.594,4.362c-1.172,1.682-2.189,3.464-3.003,5.295
			c-2.648,5.957-3.515,13.185-3.178,17.471c0.535,6.859,29.86,99.349,31.573,102.631c0.932,1.798,2.256,3.611,4.239,4.28
			c2.377,0.811,5.048,0.608,7.516,0.624c4.973,0.03,9.967-0.562,14.774-1.841c4.634-1.24,9.306-2.702,13.555-4.947
			c3.452-1.813,6.728-4.022,9.855-6.339c0.806-0.597,1.577-1.213,2.332-1.875c1.088-0.956,2.017-2.938,1.598-6.476
			C169.672,189.355,141.941,96.38,138.527,90.41z M136.781,175.893c-12.493,3.841-24.878,3.207-24.878,3.207l-16.994-55.233
			c0,0,11.476-0.942,24.157-4.756c7.088-2.137,14.887-6.292,20.476-8.977c1.558,5.067,16.917,54.984,16.917,54.984
			S149.146,172.088,136.781,175.893z"/>
	</g>
</g>
</svg>
