<?xml version="1.0" encoding="utf-8"?>
<!-- Generator: Adobe Illustrator 16.0.3, SVG Export Plug-In . SVG Version: 6.00 Build 0)  -->
<!DOCTYPE svg PUBLIC "-//W3C//DTD SVG 1.1//EN" "http://www.w3.org/Graphics/SVG/1.1/DTD/svg11.dtd">
<svg version="1.1" id="Layer_1" xmlns="http://www.w3.org/2000/svg" xmlns:xlink="http://www.w3.org/1999/xlink" x="0px" y="0px"
	 width="250px" height="300px" viewBox="0 0 250 300" enable-background="new 0 0 250 300" xml:space="preserve">
<g>
	<g>
		<path fill="#406425" d="M237.5,125.625c0,48.057-30.138,89.072-72.575,105.207l-39.886,54.18l-39.885-54.18
			C42.713,214.697,12.5,173.682,12.5,125.625c0-62.134,50.403-112.468,112.539-112.468C187.166,13.157,237.5,63.491,237.5,125.625z"
			/>
		<path fill="#2E521A" d="M125.039,289.51L83.47,233.041c-21.311-8.266-39.533-22.535-52.738-41.307
			C17.06,172.301,9.834,149.44,9.834,125.625c0-63.485,51.681-115.134,115.205-115.134c63.481,0,115.127,51.649,115.127,115.134
			c0,23.822-7.213,46.682-20.858,66.107c-13.188,18.775-31.396,33.045-52.698,41.309L125.039,289.51z M125.039,15.823
			c-60.584,0-109.873,49.257-109.873,109.802c0,45.307,28.507,86.586,70.935,102.715l0.734,0.279l38.204,51.896l38.205-51.896
			l0.734-0.279c42.382-16.113,70.856-57.391,70.856-102.715C234.834,65.08,185.58,15.823,125.039,15.823z"/>
	</g>
	<path fill="#FFFFFF" d="M147.627,98.083c0.989,5.386,0.439,101.997,0,104.892c-0.444,2.936-3.401,4.859-4.707,5.334
		c-1.303,0.469-11.227,1.941-19.04,1.941c-7.808,0-17.271-1.574-18.402-2.164c-1.129-0.58-2.39-2.156-2.938-5.582
		c-0.575-3.564-1.286-98.338,0-104.894c0.802-4.099,3.331-10.601,6.989-15.401c1.122-1.476,2.401-2.846,3.782-4.083
		c1.141-1.024,2.586-1.862,3.221-3.324c0.549-1.269,0.915-3.024,0.915-4.41c0-10.295,0-34.768,0-34.768s3.391-0.665,8.164-0.665
		c4.767,0,8.116,0.665,8.116,0.665s0,24.978,0,35.031c0.005,0.04,0.005,0.08,0.005,0.117c-0.312,3.761,2.403,6.08,4.616,8.675
		c0.756,0.886,1.469,1.809,2.133,2.761C144.002,87.261,146.848,93.814,147.627,98.083z"/>
</g>
</svg>
