<?xml version="1.0" encoding="utf-8"?>
<!-- Generator: Adobe Illustrator 16.0.3, SVG Export Plug-In . SVG Version: 6.00 Build 0)  -->
<!DOCTYPE svg PUBLIC "-//W3C//DTD SVG 1.1//EN" "http://www.w3.org/Graphics/SVG/1.1/DTD/svg11.dtd">
<svg version="1.1" id="Layer_1" xmlns="http://www.w3.org/2000/svg" xmlns:xlink="http://www.w3.org/1999/xlink" x="0px" y="0px"
	 width="250px" height="300px" viewBox="0 0 250 300" enable-background="new 0 0 250 300" xml:space="preserve">
<g>
	<g>
		<path fill="#801D80" d="M234.897,126.19c0,46.948-29.44,87.009-70.897,102.771l-38.961,52.928l-38.962-52.928
			c-41.456-15.762-70.974-55.822-70.974-102.771c0-60.697,49.238-109.865,109.936-109.865
			C185.729,16.326,234.897,65.493,234.897,126.19z"/>
		<path fill="#5D005C" d="M125.039,286.281l-40.607-55.162c-20.815-8.072-38.616-22.014-51.518-40.354
			C19.561,171.787,12.5,149.455,12.5,126.19c0-62.017,50.483-112.471,112.539-112.471c62.014,0,112.461,50.454,112.461,112.471
			c0,23.271-7.045,45.603-20.373,64.573c-12.888,18.344-30.674,32.285-51.48,40.355L125.039,286.281z M125.039,18.929
			C65.855,18.929,17.71,67.046,17.71,126.19c0,44.259,27.845,84.577,69.293,100.337l0.716,0.268l37.319,50.699l37.319-50.699
			l0.719-0.268c41.396-15.742,69.217-56.061,69.217-100.337C232.294,67.046,184.181,18.929,125.039,18.929z"/>
	</g>
	<g>
		<path fill="#FFFFFF" d="M211.572,92.52"/>
		<g>
			<path fill="#FFFFFF" d="M124.097,85.343c0,0-2.049,4.114-9.594,4.132c-7.539,0.011-8.312-4.96-8.312-4.96l-0.011,0.16
				c0.017-1.32-0.382-13.088-17.322-19.03c-4.673-1.642-7.128-6.753-5.495-11.426c1.644-4.673,6.755-7.128,11.429-5.489
				C124.94,59.305,124.145,84.279,124.097,85.343z"/>
		</g>
		<g>
			<path fill="#FFFFFF" d="M99.172,114.768c0.021,9.427-7.608,17.082-17.039,17.101c-9.429,0.019-17.083-7.61-17.103-17.041
				c-0.02-9.427,7.61-17.085,17.038-17.104C91.493,97.706,99.153,105.337,99.172,114.768z"/>
			<path fill="#FFFFFF" d="M139.843,114.69c0.021,9.433-7.606,17.085-17.034,17.106c-9.431,0.019-17.088-7.61-17.104-17.038
				c-0.016-9.43,7.609-17.09,17.037-17.109C132.164,97.634,139.83,105.262,139.843,114.69z"/>
			<path fill="#FFFFFF" d="M120.578,153.146c0.023,9.432-7.606,17.09-17.032,17.107c-9.429,0.021-17.094-7.613-17.109-17.043
				c-0.021-9.427,7.61-17.083,17.037-17.104C112.905,136.091,120.563,143.717,120.578,153.146z"/>
			<path fill="#FFFFFF" d="M163.518,153.078c0.023,9.428-7.613,17.084-17.038,17.1c-9.431,0.021-17.089-7.605-17.104-17.033
				c-0.021-9.428,7.604-17.088,17.036-17.107C155.841,136.02,163.499,143.651,163.518,153.078z"/>
			<path fill="#FFFFFF" d="M143.394,187.469c0.015,9.432-7.611,17.088-17.034,17.109c-9.428,0.016-17.092-7.615-17.108-17.039
				c-0.015-9.432,7.613-17.088,17.042-17.111C135.718,170.412,143.37,178.037,143.394,187.469z"/>
			<path fill="#FFFFFF" d="M180.507,114.011c0.357,9.419-6.993,17.344-16.416,17.7c-9.421,0.354-17.348-6.993-17.701-16.417
				c-0.356-9.422,6.998-17.343,16.42-17.703C172.231,97.237,180.152,104.586,180.507,114.011z"/>
		</g>
		<path fill="#FFFFFF" d="M191.142,66.052c-0.348-0.881-1.359-1.328-2.251-0.966l-0.252,0.096c0,0-0.142,0.059-0.427,0.17
			c-0.152,0.051-0.303,0.146-0.541,0.208c-0.234,0.061-0.507,0.135-0.806,0.224c-1.245,0.295-3.32,0.457-5.906,0.25
			c-1.356-0.109-2.773-0.346-4.356-0.674c-0.227-0.052-0.461-0.111-0.7-0.177c1.501-2.317,2.801-4.777,3.73-7.496
			c0.292-0.8,0.485-1.647,0.728-2.458l0.023-0.078l0.033-0.197l0.029-0.144l0.044-0.288c0.035-0.207,0.076-0.321,0.106-0.627
			c0.051-0.511,0.106-1.083,0.095-1.516c0.003-1.871-0.328-3.657-0.927-5.338c-0.6-1.674-1.482-3.264-2.709-4.646l-0.472-0.519
			l-0.517-0.477c-0.338-0.324-0.738-0.595-1.133-0.869c-0.379-0.29-0.845-0.49-1.267-0.721c-0.213-0.122-0.444-0.189-0.681-0.279
			l-0.354-0.127l-0.168-0.062l-0.086-0.031c0,0-0.17-0.043-0.24-0.062l-1.058-0.229c-0.516-0.058-1.038-0.109-1.565-0.136
			c-0.463,0.03-0.925,0.057-1.383,0.092c-0.455,0.087-0.906,0.169-1.345,0.265c-1.753,0.466-3.302,1.349-4.575,2.435
			c-2.537,2.173-4.147,5.135-4.576,8.307l-0.062,0.588l-0.016,0.155l-0.006,0.213v0.308l0.011,0.955
			c-0.035,0.562,0.095,1.413,0.212,2.185c0.085,0.804,0.346,1.467,0.55,2.167c0.183,0.696,0.547,1.319,0.839,1.96
			c1.299,2.512,3.215,4.417,5.162,5.83c1.203,0.859,2.427,1.564,3.63,2.161c-1.081,1.194-2.237,2.307-3.464,3.275
			c-1.105,0.864-2.293,1.615-3.459,2.159c-0.289,0.104-0.503,0.215-0.82,0.342l-0.575,0.19l-0.275,0.096l-0.091,0.027
			c0,0,0,0-0.006,0l-0.057,0.008l-0.874,0.186l-0.929,0.114c-1.268,0.09-2.633-0.029-3.999-0.291
			c-0.709-0.137-1.257-0.252-2.085-0.492c-0.068-0.015-0.15-0.042-0.231-0.066c1.118-1.538,2.311-3.35,3.219-5.599
			c0.129-0.314,0.243-0.641,0.374-0.966l0.027-0.06l0.051-0.144l0.027-0.104l0.065-0.194l0.121-0.403
			c0.086-0.358,0.188-0.726,0.281-1.093c0.071-0.333,0.138-0.672,0.203-1.016c0.247-1.374,0.377-2.776,0.362-4.223
			c-0.011-1.456-0.163-2.959-0.521-4.499c-0.373-1.547-0.971-3.156-1.979-4.699l-0.191-0.291l-0.108-0.136l-0.035-0.08
			c-0.017-0.013-0.017-0.013-0.017-0.013s-0.015-0.029-0.158-0.205l-0.305-0.378c-0.151-0.194-0.575-0.649-0.927-1.003
			c-0.71-0.692-1.33-1.168-2.052-1.68c-0.352-0.239-0.729-0.465-1.104-0.694c-0.389-0.206-0.773-0.421-1.183-0.615
			c-0.44-0.178-0.822-0.375-1.317-0.53l-0.72-0.218l-0.086-0.024l-0.223-0.058l-0.127-0.027l-0.256-0.052l-0.503-0.103l-0.686-0.104
			c-0.471-0.066-0.954-0.124-1.345-0.135c-0.831-0.083-1.677-0.069-2.521-0.05l-1.305,0.098c-0.443,0.053-0.917,0.136-1.365,0.212
			c-0.454,0.076-0.98,0.248-1.465,0.389c-0.241,0.05-0.523,0.173-0.805,0.309c-0.283,0.125-0.554,0.258-0.826,0.396l-0.204,0.109
			l-0.251,0.155l-0.224,0.151l-0.462,0.325c-0.426,0.33-0.93,0.687-1.274,1.041c-0.745,0.673-1.411,1.521-1.983,2.407
			c-0.562,0.919-0.979,1.917-1.274,2.93c-0.279,1.014-0.41,2.051-0.439,3.061c-0.036,2.005,0.346,3.875,0.918,5.604
			c0.584,1.735,1.363,3.334,2.292,4.846c0.92,1.5,1.982,2.91,3.197,4.228c0.616,0.655,1.265,1.285,1.972,1.89l0.549,0.455
			l0.157,0.127l0.062,0.04l0.116,0.087l0.24,0.168l0.963,0.697c0.517,0.414,1.124,0.822,1.781,1.218
			c-0.165,0.21-0.308,0.429-0.455,0.636c-0.437,0.582-0.824,1.187-1.232,1.679c-0.807,1-1.532,1.993-2.127,2.595
			c-0.619,0.666-1.009,1.206-1.636,1.732c-1.113,1.021-1.695,1.56-1.695,1.56l-0.043,0.036c-0.016,0.021-0.035,0.041-0.061,0.059
			c-1.675,1.623-1.723,4.294-0.108,5.974c1.629,1.678,4.295,1.722,5.98,0.111c0,0,0.574-0.561,1.658-1.602
			c0.515-0.45,1.268-1.367,2.104-2.313c0.904-0.998,1.628-2.041,2.544-3.254c0.474-0.602,0.869-1.248,1.335-1.919
			c0.359-0.526,0.734-1.075,1.118-1.647c0.854,0.278,1.717,0.628,2.548,0.814c0.716,0.186,1.735,0.407,2.608,0.542
			c1.778,0.284,3.63,0.42,5.556,0.24c4.052-0.381,7.451-2.374,10.16-4.601c2.08-1.73,3.868-3.67,5.444-5.703
			c0.788,0.215,1.56,0.397,2.3,0.548c1.74,0.322,3.389,0.548,4.823,0.626c2.999,0.169,5.354-0.067,7.044-0.49
			c0.409-0.125,0.772-0.237,1.096-0.33c0.316-0.096,0.58-0.243,0.792-0.322c0.426-0.194,0.649-0.295,0.649-0.295
			C191.08,67.901,191.484,66.914,191.142,66.052z M145.424,69.628l0.034,0.008l0.026,0.018L145.424,69.628z M147.07,63.463
			c-0.649,1.495-1.655,2.932-2.778,4.355c-0.194,0.242-0.384,0.479-0.569,0.718c-0.594-0.383-1.197-0.792-1.85-1.328l-0.939-0.716
			l-0.233-0.175l-0.117-0.09l-0.006-0.002l-0.361-0.32c-0.479-0.426-0.939-0.891-1.384-1.386c-0.872-1.009-1.671-2.105-2.325-3.246
			c-1.319-2.281-2.167-4.816-2.047-6.817c0.063-1.003,0.319-1.813,0.754-2.497c0.244-0.327,0.484-0.66,0.835-0.939
			c0.173-0.172,0.289-0.213,0.42-0.34l0.443-0.292l0.207-0.127l0.048-0.011c0.047-0.019,0.101-0.032,0.144-0.051
			c0.044-0.026,0.097-0.061,0.212-0.08c0.206-0.035,0.349-0.109,0.607-0.139l0.75-0.093l0.809-0.045
			c0.57,0.01,1.129,0.015,1.691,0.082c0.3,0.016,0.515,0.059,0.726,0.085l0.335,0.051l0.502,0.123l0.256,0.044l0.029,0.012
			l0.032,0.013l0.262,0.096c0.164,0.035,0.38,0.169,0.564,0.248c0.198,0.09,0.402,0.218,0.604,0.332l0.598,0.394
			c0.176,0.15,0.38,0.289,0.552,0.439l0.25,0.227c0.092,0.077,0.166,0.146,0.192,0.186c0.107,0.123,0.154,0.123,0.401,0.456
			l0.188,0.242c0,0,0,0.005,0.005,0.016c0.018,0.008,0.022,0.013,0.022,0.013l0.008,0.019l0.036,0.059l0.08,0.122
			c0.803,1.277,1.169,3.241,1.139,5.125c-0.017,0.948-0.129,1.897-0.318,2.794l-0.147,0.648l-0.159,0.546l-0.121,0.402l-0.07,0.197
			l-0.018,0.054l-0.02,0.042L147.07,63.463z M175.469,53.042c0.011,0.086-0.054,0.332-0.087,0.503l-0.053,0.285l-0.017,0.083
			l-0.021,0.061c-0.215,0.646-0.378,1.314-0.622,1.953c-0.921,2.488-2.4,5.028-4.119,7.39c-1.299-0.609-2.583-1.347-3.778-2.267
			c-1.555-1.176-2.943-2.667-3.806-4.46c-0.191-0.46-0.443-0.891-0.548-1.385c-0.133-0.49-0.325-0.985-0.325-1.435
			c-0.063-0.469-0.187-0.862-0.133-1.573l0.012-0.955V51.04l0.019-0.094l0.05-0.37c0.295-1.953,1.453-3.98,3.129-5.342
			c0.841-0.673,1.808-1.172,2.789-1.406c0.245-0.039,0.495-0.077,0.745-0.124c0.251,0,0.495-0.012,0.74-0.03
			c0.203,0.033,0.386,0.042,0.585,0.037l0.964,0.24l0.019,0.011l0.071,0.032l0.171,0.068c0.1,0.043,0.218,0.067,0.318,0.125
			c0.193,0.147,0.42,0.212,0.614,0.386c0.194,0.151,0.402,0.29,0.595,0.484l0.275,0.267l0.272,0.311
			c0.708,0.847,1.284,1.911,1.665,3.066c0.384,1.157,0.57,2.403,0.529,3.583C175.533,52.606,175.479,52.795,175.469,53.042z"/>
		<polygon fill="#FFFFFF" points="145.484,69.654 145.424,69.628 145.458,69.636 		"/>
	</g>
</g>
</svg>
