<?xml version="1.0" encoding="utf-8"?>
<!-- Generator: Adobe Illustrator 16.0.3, SVG Export Plug-In . SVG Version: 6.00 Build 0)  -->
<!DOCTYPE svg PUBLIC "-//W3C//DTD SVG 1.1//EN" "http://www.w3.org/Graphics/SVG/1.1/DTD/svg11.dtd">
<svg version="1.1" id="Layer_1" xmlns="http://www.w3.org/2000/svg" xmlns:xlink="http://www.w3.org/1999/xlink" x="0px" y="0px"
	 width="100px" height="50px" viewBox="0 0 100 50" enable-background="new 0 0 100 50" xml:space="preserve">
<g>
	<g>
		<g>
			<path fill="#811F70" d="M28.373,20.394"/>
		</g>
		<g>
			<g>
				<path fill="#811F70" d="M13.819,19.2c0,0-0.345,0.685-1.6,0.688c-1.253,0.001-1.387-0.825-1.387-0.825v0.026
					c0.006-0.219-0.063-2.179-2.88-3.166c-0.777-0.273-1.185-1.126-0.917-1.901c0.272-0.778,1.127-1.187,1.905-0.916
					C13.958,14.868,13.826,19.023,13.819,19.2z"/>
			</g>
		</g>
		<g>
			<g>
				<path fill="#811F70" d="M9.669,24.098c0,1.565-1.267,2.842-2.839,2.844c-1.567,0.004-2.836-1.267-2.844-2.834
					c0-1.57,1.269-2.844,2.836-2.846C8.393,21.257,9.662,22.528,9.669,24.098z"/>
			</g>
			<g>
				<path fill="#811F70" d="M16.44,24.084c0,1.569-1.27,2.843-2.841,2.846c-1.567,0.003-2.844-1.266-2.844-2.834
					c0-1.57,1.268-2.843,2.831-2.847C15.157,21.245,16.434,22.515,16.44,24.084z"/>
			</g>
			<g>
				<path fill="#811F70" d="M13.23,30.482c0.006,1.572-1.262,2.845-2.83,2.847c-1.572,0.005-2.847-1.266-2.855-2.835
					c0-1.568,1.269-2.841,2.841-2.847C11.954,27.643,13.23,28.914,13.23,30.482z"/>
			</g>
			<g>
				<path fill="#811F70" d="M20.378,30.472c0,1.568-1.266,2.841-2.837,2.844c-1.57,0.004-2.847-1.266-2.847-2.834
					s1.266-2.844,2.838-2.845C19.103,27.634,20.371,28.9,20.378,30.472z"/>
			</g>
			<g>
				<path fill="#811F70" d="M17.027,36.195c0,1.567-1.267,2.844-2.837,2.846c-1.562,0.004-2.838-1.264-2.846-2.835
					c0-1.567,1.269-2.844,2.839-2.846C15.752,33.355,17.027,34.626,17.027,36.195z"/>
			</g>
			<g>
				<path fill="#811F70" d="M23.203,23.971c0.062,1.567-1.164,2.885-2.727,2.947c-1.57,0.058-2.894-1.165-2.95-2.732
					c-0.056-1.57,1.163-2.888,2.731-2.948C21.828,21.18,23.145,22.403,23.203,23.971z"/>
			</g>
		</g>
		<g>
			<path fill="#811F70" d="M24.976,15.991c-0.056-0.148-0.226-0.223-0.379-0.162l-0.044,0.016c0,0-0.021,0.011-0.068,0.028
				c-0.021,0.009-0.049,0.024-0.09,0.035c-0.036,0.01-0.084,0.023-0.136,0.036c-0.204,0.049-0.553,0.077-0.979,0.043
				c-0.222-0.019-0.464-0.058-0.724-0.112c-0.04-0.009-0.075-0.019-0.117-0.03c0.252-0.386,0.461-0.796,0.623-1.249
				c0.042-0.133,0.077-0.272,0.121-0.409v-0.013l0.007-0.034l0.007-0.022l0.007-0.049c0.007-0.032,0.013-0.052,0.013-0.103
				c0.014-0.086,0.021-0.182,0.021-0.252c0-0.312-0.055-0.61-0.155-0.889c-0.097-0.278-0.252-0.543-0.454-0.775l-0.076-0.085
				l-0.085-0.078c-0.056-0.056-0.126-0.101-0.188-0.146c-0.064-0.048-0.14-0.082-0.211-0.12c-0.035-0.021-0.077-0.03-0.111-0.046
				l-0.065-0.021l-0.026-0.012l-0.015-0.003c0,0-0.028-0.009-0.039-0.011l-0.17-0.036c-0.091-0.011-0.174-0.02-0.267-0.023
				c-0.079,0.005-0.157,0.008-0.235,0.014c-0.066,0.015-0.146,0.029-0.214,0.045c-0.294,0.076-0.554,0.224-0.764,0.404
				c-0.423,0.361-0.695,0.855-0.763,1.383l-0.008,0.098l-0.01,0.025v0.037v0.05v0.16c0,0.092,0.021,0.235,0.042,0.363
				c0.014,0.136,0.056,0.245,0.09,0.36c0.032,0.117,0.092,0.22,0.143,0.327c0.21,0.418,0.532,0.734,0.855,0.97
				c0.2,0.143,0.404,0.261,0.601,0.359c-0.175,0.201-0.37,0.385-0.573,0.546c-0.184,0.145-0.378,0.269-0.577,0.358
				c-0.047,0.018-0.083,0.039-0.139,0.058l-0.091,0.032l-0.049,0.016l-0.014,0.006l0,0h-0.006l-0.151,0.03l-0.152,0.02
				c-0.208,0.014-0.442-0.005-0.666-0.047c-0.119-0.024-0.21-0.044-0.35-0.083c-0.01-0.002-0.021-0.007-0.033-0.011
				c0.181-0.257,0.382-0.557,0.529-0.93c0.022-0.053,0.043-0.107,0.064-0.163l0.007-0.009l0.007-0.024l0.009-0.019l0.005-0.031
				l0.02-0.066c0.014-0.061,0.031-0.122,0.052-0.183c0.004-0.054,0.018-0.113,0.036-0.17c0.035-0.228,0.056-0.461,0.056-0.703
				c0-0.241-0.031-0.492-0.087-0.749c-0.06-0.257-0.158-0.525-0.326-0.782l-0.036-0.047l-0.013-0.023l-0.007-0.012
				c-0.011-0.004-0.011-0.004-0.011-0.004s0-0.004-0.019-0.033l-0.056-0.062c-0.021-0.033-0.091-0.109-0.153-0.167
				c-0.111-0.115-0.219-0.196-0.336-0.28c-0.062-0.041-0.128-0.077-0.185-0.115c-0.069-0.034-0.13-0.07-0.201-0.103
				c-0.068-0.03-0.133-0.063-0.216-0.089l-0.122-0.033l-0.012-0.005l-0.034-0.01l-0.022-0.006l-0.043-0.005l-0.083-0.018
				l-0.122-0.018c-0.077-0.01-0.154-0.021-0.222-0.024c-0.136-0.013-0.273-0.011-0.414-0.009l-0.216,0.018
				c-0.078,0.009-0.157,0.023-0.233,0.035c-0.079,0.012-0.16,0.042-0.246,0.063c-0.032,0.01-0.081,0.03-0.133,0.054
				c-0.041,0.02-0.092,0.043-0.132,0.065l-0.036,0.018l-0.042,0.026l-0.034,0.025l-0.078,0.054
				c-0.075,0.054-0.151,0.113-0.218,0.174c-0.117,0.111-0.231,0.251-0.326,0.399c-0.094,0.154-0.164,0.317-0.213,0.489
				c-0.047,0.168-0.069,0.341-0.069,0.508c-0.01,0.333,0.058,0.645,0.146,0.934c0.1,0.287,0.23,0.555,0.386,0.806
				c0.155,0.249,0.331,0.483,0.533,0.704c0.098,0.109,0.21,0.214,0.328,0.315l0.085,0.074l0.025,0.022l0.017,0.005l0.021,0.016
				l0.035,0.027l0.161,0.118c0.083,0.067,0.19,0.136,0.296,0.201c-0.024,0.035-0.049,0.072-0.08,0.107
				c-0.068,0.096-0.133,0.196-0.202,0.279c-0.136,0.167-0.252,0.333-0.349,0.433c-0.107,0.11-0.168,0.2-0.275,0.287
				c-0.183,0.17-0.281,0.259-0.281,0.259l-0.003,0.008c-0.011,0.004-0.011,0.005-0.017,0.008c-0.28,0.273-0.288,0.716-0.014,0.995
				c0.266,0.281,0.715,0.286,0.994,0.018c0,0,0.092-0.092,0.276-0.267c0.083-0.072,0.207-0.226,0.352-0.383
				c0.146-0.166,0.271-0.339,0.417-0.542c0.088-0.101,0.148-0.208,0.225-0.322c0.066-0.085,0.129-0.177,0.191-0.271
				c0.142,0.045,0.279,0.105,0.42,0.135c0.118,0.032,0.287,0.068,0.434,0.091c0.294,0.045,0.601,0.07,0.926,0.038
				c0.672-0.062,1.241-0.394,1.69-0.765c0.35-0.287,0.643-0.61,0.909-0.948c0.125,0.035,0.259,0.066,0.378,0.091
				c0.286,0.053,0.565,0.091,0.805,0.104c0.5,0.028,0.89-0.013,1.171-0.081c0.07-0.021,0.126-0.039,0.182-0.054
				c0.056-0.019,0.098-0.042,0.133-0.054c0.07-0.033,0.104-0.051,0.104-0.051C24.961,16.298,25.031,16.135,24.976,15.991z
				 M17.363,16.584l0.01,0.002l0.004,0.003L17.363,16.584z M17.638,15.559c-0.105,0.25-0.275,0.488-0.463,0.724
				c-0.026,0.041-0.063,0.082-0.092,0.121c-0.098-0.065-0.202-0.134-0.305-0.224l-0.159-0.116l-0.04-0.03l-0.021-0.015l0,0
				l-0.054-0.053c-0.083-0.071-0.163-0.148-0.231-0.231c-0.149-0.167-0.281-0.351-0.393-0.542c-0.219-0.379-0.357-0.8-0.334-1.134
				c0.003-0.165,0.045-0.3,0.125-0.414c0.042-0.055,0.078-0.108,0.139-0.158c0.028-0.028,0.041-0.033,0.071-0.056l0.068-0.047
				l0.036-0.022l0.007-0.002c0.007-0.002,0.013-0.004,0.025-0.007c0.011-0.006,0.017-0.011,0.038-0.016
				c0.03-0.003,0.056-0.016,0.098-0.021l0.127-0.017l0.13-0.006c0.094,0.001,0.19,0.001,0.28,0.013
				c0.053,0.003,0.088,0.01,0.123,0.015l0.056,0.009l0.083,0.019l0.042,0.006l0.008,0.004l0.006,0.001l0.042,0.017
				c0.028,0.005,0.063,0.028,0.089,0.04c0.037,0.017,0.072,0.038,0.108,0.056l0.097,0.065c0.03,0.024,0.064,0.049,0.09,0.074
				l0.042,0.038c0.014,0.012,0.031,0.024,0.037,0.03c0.014,0.022,0.021,0.022,0.063,0.077l0.035,0.039c0,0,0,0.001,0,0.004
				c0,0.002,0,0.002,0,0.002v0.003l0.008,0.01l0.012,0.019c0.134,0.214,0.196,0.542,0.19,0.854c0,0.158-0.023,0.315-0.05,0.465
				l-0.028,0.108l-0.028,0.091L17.7,15.417l-0.014,0.033l-0.006,0.01v0.007L17.638,15.559z M22.37,13.824
				c0,0.016-0.016,0.055-0.016,0.086l-0.014,0.045v0.012l-0.007,0.011c-0.035,0.11-0.063,0.22-0.099,0.326
				c-0.152,0.414-0.399,0.838-0.685,1.231c-0.22-0.102-0.429-0.225-0.634-0.379c-0.259-0.193-0.488-0.442-0.626-0.741
				c-0.035-0.077-0.079-0.147-0.091-0.231c-0.023-0.08-0.06-0.162-0.06-0.237c-0.006-0.079-0.028-0.145-0.02-0.262v-0.16v-0.032
				v-0.016l0.014-0.062c0.05-0.326,0.239-0.663,0.52-0.891c0.139-0.112,0.3-0.195,0.461-0.233c0.044-0.007,0.083-0.012,0.128-0.019
				c0.042,0,0.082-0.003,0.124-0.007c0.03,0.007,0.065,0.009,0.091,0.009l0.162,0.037l0.007,0.001l0.016,0.006l0.02,0.011
				c0.021,0.008,0.04,0.011,0.056,0.022c0.037,0.022,0.072,0.035,0.105,0.063c0.028,0.025,0.063,0.048,0.099,0.08l0.04,0.045
				l0.05,0.051c0.117,0.142,0.211,0.319,0.273,0.509c0.062,0.194,0.098,0.402,0.088,0.599C22.373,13.75,22.37,13.784,22.37,13.824z"
				/>
		</g>
		<g>
			<polygon fill="#811F70" points="17.377,16.59 17.363,16.584 17.373,16.586 			"/>
		</g>
	</g>
</g>
<g>
	<g>
		<g>
			<path fill="#93243B" d="M39.223,34.505c-0.011-0.004-0.026-0.004-0.031-0.004c-0.152-0.044-0.219-0.174-0.274-0.322
				c-0.008-0.021-0.008-0.044-0.008-0.062c0,0-0.013-5.706-0.017-7.131c0-0.013,0.004-0.031,0.004-0.043
				c0-0.22,0.198-0.287,0.332-0.33c0.02-0.004,0.033-0.007,0.056-0.011c1.445-0.292,2.773-1.129,3.818-2.424
				c1.274-1.583,1.974-3.676,1.971-5.893c0-1.033-0.159-2.038-0.458-2.989c-0.018-0.05-0.031-0.101-0.048-0.152
				c-0.203-0.44-0.603-0.769-1.083-0.825c-0.03-0.004-0.056-0.006-0.081-0.008c-2.196,0.004-8.011,0.015-10.41,0.018
				c-0.05,0-0.102,0.002-0.148,0.002c-0.579,0.002-0.973,0.331-1.217,0.839c-0.017,0.05-0.029,0.101-0.047,0.15
				c-0.293,0.954-0.442,1.957-0.442,2.988c0.002,2.219,0.71,4.31,1.99,5.887c1.067,1.309,2.415,2.145,3.889,2.421
				c0.008,0,0.024,0.007,0.038,0.01c0.188,0.033,0.32,0.167,0.294,0.33c0,0.014,0,0.029,0,0.038
				c0.002,1.439,0.014,7.086,0.014,7.086c0,0.013,0,0.026,0,0.049c-0.038,0.197-0.126,0.331-0.259,0.371
				c-0.026,0-0.032,0.009-0.054,0.009c-2.399,0.08-4.2,0.434-4.195,0.844c0,0.47,2.368,0.85,5.285,0.845
				c2.92-0.01,5.288-0.394,5.284-0.863C43.423,34.921,41.622,34.577,39.223,34.505z M32.788,18.309
				c-0.004-0.804,0.106-1.583,0.321-2.327l9.98-0.018c0.217,0.741,0.327,1.521,0.33,2.323c0.008,3.733-2.371,6.773-5.3,6.78
				C35.186,25.071,32.794,22.042,32.788,18.309z"/>
		</g>
		<g>
			<path fill="#93243B" d="M42.046,18.261c-0.097-0.109-7.833-0.065-7.902,0.015c-0.067,0.081-0.114,0.836-0.014,1.928
				c0.213,2.259,2.172,3.881,3.977,3.876c1.805-0.005,3.631-1.695,3.962-3.939C42.183,19.353,42.146,18.372,42.046,18.261z"/>
		</g>
	</g>
</g>
<g>
	<g>
		<g>
			<path fill="#603813" d="M75.436,32.667v-2.824c0,0-0.927,0.176-2.336,0.402v3.34C74.509,33.067,75.436,32.667,75.436,32.667z"/>
		</g>
		<g>
			<path fill="#603813" d="M51.874,29.843v2.824c0,0,1.192,0.516,2.926,1.131v-3.458C53.066,30.066,51.874,29.843,51.874,29.843z"/>
		</g>
		<g>
			<path fill="#603813" d="M63.652,31.26c-2.16,0-4.928-0.301-7.281-0.632v3.836c2.354,0.742,5.121,1.43,7.281,1.43
				c2.352,0,5.409-0.813,7.877-1.622v-3.724C69.062,30.903,66.004,31.26,63.652,31.26z"/>
		</g>
		<g>
			<path fill="#603813" d="M75.436,28.51v-6.275c0,0-0.927-0.175-2.336-0.4v6.675H75.436z"/>
		</g>
		<g>
			<path fill="#603813" d="M51.874,17.839v2.825c0,0,1.192-0.226,2.926-0.496v-3.46C53.066,17.325,51.874,17.839,51.874,17.839z"/>
		</g>
		<g>
			<path fill="#603813" d="M63.652,19.248c2.345,0,5.408,0.357,7.877,0.713v-3.726c-2.469-0.807-5.532-1.618-7.877-1.618
				c-2.16,0-4.928,0.686-7.281,1.425v3.833C58.725,19.552,61.492,19.248,63.652,19.248z"/>
		</g>
		<g>
			<path fill="#603813" d="M75.436,20.665v-2.825c0,0-0.927-0.4-2.336-0.916v3.338C74.509,20.49,75.436,20.665,75.436,20.665z"/>
		</g>
		<g>
			<path fill="#603813" d="M71.532,26.037v3.222c-2.354,0.323-5.117,0.626-7.286,0.626c-2.342,0-5.403-0.358-7.875-0.715v-7.721
				c2.354-0.329,5.121-0.63,7.281-0.63c2.345,0,5.406,0.358,7.874,0.714v4.505H71.532z"/>
		</g>
		<g>
			<path fill="#603813" d="M51.874,23.998v2.175h-1.569c-0.316,0-0.578,0.287-0.578,0.635v1.069c0,0.349-0.261,0.633-0.58,0.633
				h-0.832c-0.317,0-0.579-0.284-0.579-0.633v-3.247c0-0.345,0.261-0.632,0.579-0.632H51.874z"/>
		</g>
		<g>
			<path fill="#603813" d="M54.8,21.737v7.088c-1.729-0.273-2.926-0.496-2.926-0.496v-6.096
				C51.874,22.233,53.071,22.011,54.8,21.737z"/>
		</g>
	</g>
</g>
<g>
	<g>
		<g>
			<path fill="#406425" d="M82.652,12.515l0.02-0.015l0.595-0.239c0.748-0.301,1.325-0.511,1.504-0.578
				c-0.251-0.614-0.354-0.874-0.393-0.971c0,0-0.671,0.146-1.546,0.502l-0.572,0.229l-0.018,0.011
				c-0.755,0.323-1.246,0.624-1.246,0.624c0.04,0.099,0.143,0.358,0.392,0.975C81.547,12.984,82.013,12.774,82.652,12.515z"/>
		</g>
		<g>
			<path fill="#406425" d="M91.04,19.963c-0.389-0.558-1.226-1.363-2.146-1.831c-0.282-0.144-0.591-0.263-0.899-0.351
				c-0.261-0.074-0.56-0.102-0.758-0.276c-0.173-0.154-0.339-0.393-0.43-0.602c-0.438-1.08-1.294-3.196-1.772-4.381
				c-0.232,0.112-0.738,0.336-1.628,0.698c-0.841,0.338-1.308,0.507-1.531,0.585c0.479,1.184,1.336,3.296,1.772,4.379
				c0.086,0.206,0.127,0.499,0.109,0.729c-0.02,0.263-0.218,0.491-0.351,0.721c-0.16,0.284-0.301,0.58-0.402,0.884
				c-0.336,0.973-0.375,2.13-0.261,2.802c0.172,1.08,6.073,15.315,6.391,15.811c0.174,0.268,0.403,0.541,0.728,0.617
				c0.388,0.098,0.808,0.025,1.197,0c0.789-0.064,1.569-0.229,2.312-0.496c0.72-0.264,1.438-0.555,2.079-0.971
				c0.522-0.326,1.008-0.725,1.471-1.135c0.121-0.102,0.234-0.213,0.344-0.33c0.161-0.166,0.28-0.486,0.166-1.042
				C97.314,35.196,91.657,20.865,91.04,19.963z M91.924,33.514c-1.923,0.781-3.891,0.85-3.891,0.85l-3.441-8.51
				c0,0,1.806-0.303,3.756-1.083c1.091-0.433,2.271-1.197,3.119-1.694c0.313,0.779,3.427,8.465,3.427,8.465
				S93.832,32.745,91.924,33.514z"/>
		</g>
	</g>
</g>
</svg>
