<?xml version="1.0" encoding="utf-8"?>
<!-- Generator: Adobe Illustrator 16.0.3, SVG Export Plug-In . SVG Version: 6.00 Build 0)  -->
<!DOCTYPE svg PUBLIC "-//W3C//DTD SVG 1.1//EN" "http://www.w3.org/Graphics/SVG/1.1/DTD/svg11.dtd">
<svg version="1.1" id="Layer_1" xmlns="http://www.w3.org/2000/svg" xmlns:xlink="http://www.w3.org/1999/xlink" x="0px" y="0px"
	 width="550px" height="97px" viewBox="0 0 550 97" enable-background="new 0 0 550 97" xml:space="preserve">
<g>
	<path fill="#801D80" stroke="#5D005C" stroke-width="1.9578" stroke-miterlimit="10" d="M86.266,28.773
		c0,10.905-6.839,20.213-16.47,23.875l-9.051,12.295l-9.051-12.295c-9.631-3.663-16.488-12.971-16.488-23.875
		c0-14.101,11.438-25.523,25.539-25.523C74.843,3.25,86.266,14.673,86.266,28.773z"/>
	<g>
		<path fill="#FFFFFF" d="M80.847,20.952"/>
		<g>
			<path fill="#FFFFFF" d="M60.525,19.284c0,0-0.477,0.956-2.229,0.96c-1.751,0.002-1.931-1.152-1.931-1.152l-0.002,0.037
				c0.003-0.307-0.089-3.041-4.025-4.421c-1.085-0.381-1.655-1.569-1.276-2.654c0.382-1.085,1.569-1.656,2.655-1.275
				C60.721,13.235,60.536,19.037,60.525,19.284z"/>
		</g>
		<g>
			<circle fill="#FFFFFF" cx="50.769" cy="26.127" r="3.966"/>
			<circle fill="#FFFFFF" cx="60.218" cy="26.11" r="3.966"/>
			<circle fill="#FFFFFF" cx="55.742" cy="35.043" r="3.966"/>
			<circle fill="#FFFFFF" cx="65.717" cy="35.027" r="3.966"/>
			<circle fill="#FFFFFF" cx="61.043" cy="43.017" r="3.966"/>
			<circle fill="#FFFFFF" cx="69.667" cy="26.093" r="3.966"/>
		</g>
		<path fill="#FFFFFF" d="M76.101,14.803c-0.081-0.205-0.315-0.309-0.522-0.225L75.52,14.6c0,0-0.033,0.014-0.099,0.04
			c-0.036,0.012-0.071,0.034-0.127,0.048c-0.054,0.015-0.118,0.032-0.186,0.052c-0.29,0.069-0.772,0.107-1.373,0.059
			c-0.316-0.025-0.645-0.08-1.012-0.156c-0.052-0.013-0.107-0.026-0.162-0.042c0.347-0.539,0.648-1.11,0.866-1.741
			c0.067-0.187,0.112-0.383,0.168-0.572L73.6,12.27l0.007-0.046l0.006-0.033l0.011-0.067c0.008-0.048,0.018-0.075,0.024-0.146
			c0.012-0.118,0.025-0.251,0.021-0.353c0.001-0.435-0.075-0.849-0.215-1.24c-0.138-0.389-0.344-0.758-0.629-1.079l-0.109-0.121
			l-0.122-0.111c-0.073-0.074-0.167-0.137-0.259-0.2c-0.087-0.068-0.197-0.114-0.294-0.168c-0.049-0.028-0.104-0.044-0.159-0.065
			L71.8,8.611l-0.04-0.014l-0.02-0.008c0,0-0.04-0.01-0.055-0.014l-0.246-0.053C71.32,8.508,71.2,8.497,71.078,8.491
			c-0.108,0.007-0.216,0.013-0.323,0.021c-0.105,0.021-0.21,0.04-0.312,0.063c-0.408,0.108-0.767,0.313-1.063,0.565
			c-0.588,0.505-0.964,1.193-1.062,1.93l-0.016,0.136l-0.004,0.036l-0.001,0.049v0.072l0.002,0.222
			c-0.008,0.13,0.023,0.329,0.05,0.508c0.021,0.188,0.081,0.34,0.128,0.502c0.042,0.163,0.126,0.307,0.195,0.456
			c0.3,0.583,0.746,1.026,1.198,1.354c0.279,0.2,0.564,0.364,0.844,0.502c-0.25,0.277-0.521,0.536-0.805,0.761
			c-0.256,0.201-0.533,0.375-0.804,0.501c-0.066,0.024-0.117,0.05-0.191,0.081l-0.133,0.043l-0.065,0.022l-0.021,0.006
			c0,0,0,0-0.001,0l-0.013,0.001l-0.204,0.043l-0.216,0.027c-0.293,0.021-0.61-0.007-0.929-0.067
			c-0.164-0.033-0.291-0.06-0.483-0.115c-0.017-0.004-0.036-0.01-0.054-0.016c0.26-0.357,0.537-0.778,0.747-1.3
			c0.03-0.073,0.058-0.149,0.088-0.225l0.005-0.014l0.012-0.033l0.008-0.024l0.014-0.045l0.028-0.094
			c0.021-0.083,0.043-0.168,0.066-0.253c0.016-0.077,0.031-0.157,0.047-0.237c0.057-0.318,0.086-0.645,0.083-0.979
			c-0.003-0.338-0.037-0.688-0.121-1.045c-0.087-0.359-0.226-0.733-0.46-1.092l-0.044-0.068l-0.024-0.031l-0.01-0.018
			c-0.004-0.003-0.004-0.003-0.004-0.003s-0.003-0.007-0.035-0.047l-0.072-0.088c-0.034-0.045-0.133-0.151-0.214-0.233
			c-0.165-0.161-0.31-0.272-0.477-0.39c-0.083-0.056-0.171-0.108-0.257-0.162c-0.09-0.048-0.18-0.097-0.275-0.143
			c-0.102-0.042-0.191-0.087-0.306-0.123l-0.167-0.051L65.41,9.49l-0.051-0.014l-0.03-0.006l-0.06-0.012l-0.117-0.024l-0.16-0.024
			c-0.11-0.016-0.221-0.029-0.312-0.032c-0.192-0.019-0.389-0.016-0.585-0.011L63.792,9.39c-0.103,0.012-0.212,0.031-0.317,0.049
			c-0.105,0.017-0.228,0.058-0.34,0.09c-0.056,0.012-0.122,0.041-0.188,0.072c-0.065,0.029-0.128,0.06-0.191,0.092l-0.048,0.025
			L62.65,9.755L62.597,9.79L62.49,9.865c-0.099,0.077-0.215,0.16-0.294,0.242c-0.175,0.157-0.329,0.354-0.462,0.56
			c-0.13,0.213-0.228,0.445-0.295,0.681c-0.065,0.236-0.095,0.477-0.102,0.71c-0.009,0.467,0.08,0.901,0.212,1.302
			c0.136,0.403,0.317,0.775,0.532,1.126c0.215,0.349,0.461,0.676,0.744,0.982c0.143,0.152,0.294,0.299,0.458,0.439l0.126,0.105
			l0.037,0.029l0.014,0.01l0.028,0.021l0.055,0.039l0.224,0.163c0.121,0.096,0.262,0.19,0.415,0.283
			c-0.038,0.048-0.071,0.099-0.106,0.147c-0.101,0.136-0.19,0.276-0.286,0.391c-0.188,0.232-0.356,0.463-0.494,0.603
			c-0.145,0.155-0.234,0.28-0.38,0.403c-0.258,0.237-0.395,0.362-0.395,0.362l-0.009,0.009c-0.004,0.005-0.008,0.009-0.015,0.013
			c-0.389,0.377-0.399,0.998-0.025,1.388c0.377,0.391,0.999,0.4,1.389,0.026c0,0,0.134-0.13,0.386-0.372
			c0.119-0.104,0.295-0.318,0.488-0.537c0.21-0.232,0.379-0.475,0.591-0.756c0.11-0.14,0.202-0.29,0.311-0.445
			c0.083-0.123,0.17-0.25,0.259-0.383c0.199,0.063,0.399,0.146,0.593,0.188c0.166,0.043,0.403,0.095,0.606,0.126
			c0.413,0.066,0.843,0.098,1.291,0.056c0.94-0.088,1.73-0.551,2.359-1.069c0.484-0.401,0.899-0.852,1.265-1.324
			c0.182,0.049,0.362,0.092,0.533,0.127c0.405,0.074,0.789,0.127,1.121,0.145c0.697,0.04,1.245-0.015,1.636-0.113
			c0.095-0.029,0.181-0.055,0.255-0.077c0.074-0.022,0.135-0.056,0.185-0.075c0.099-0.045,0.151-0.069,0.151-0.069
			C76.086,15.232,76.181,15.003,76.101,14.803z M65.479,15.633l0.008,0.002l0.006,0.004L65.479,15.633z M65.861,14.201
			c-0.15,0.348-0.383,0.682-0.644,1.012c-0.045,0.056-0.089,0.111-0.133,0.167c-0.137-0.089-0.277-0.185-0.429-0.309l-0.218-0.166
			l-0.056-0.041l-0.026-0.021l-0.001-0.001l-0.084-0.073c-0.111-0.099-0.218-0.208-0.322-0.322
			c-0.203-0.234-0.388-0.489-0.541-0.755c-0.307-0.529-0.502-1.118-0.475-1.583c0.014-0.233,0.074-0.42,0.175-0.58
			c0.058-0.076,0.113-0.153,0.194-0.218c0.04-0.04,0.068-0.049,0.098-0.079l0.103-0.068l0.048-0.029l0.011-0.002
			c0.012-0.004,0.024-0.007,0.034-0.012c0.01-0.006,0.021-0.014,0.049-0.019c0.047-0.008,0.081-0.025,0.141-0.032l0.174-0.022
			l0.188-0.011c0.132,0.002,0.262,0.003,0.394,0.019c0.069,0.004,0.119,0.014,0.168,0.02l0.077,0.012l0.118,0.028l0.059,0.011
			l0.006,0.002l0.008,0.003l0.06,0.022c0.039,0.008,0.089,0.039,0.132,0.057c0.046,0.021,0.093,0.051,0.141,0.078l0.137,0.091
			c0.041,0.035,0.089,0.066,0.129,0.102l0.058,0.053c0.021,0.018,0.039,0.034,0.044,0.043c0.024,0.028,0.036,0.028,0.093,0.105
			l0.044,0.056c0,0,0,0.001,0.001,0.004c0.003,0.001,0.004,0.003,0.004,0.003l0.002,0.004l0.008,0.014l0.018,0.028
			c0.188,0.297,0.273,0.752,0.264,1.191c-0.003,0.22-0.029,0.44-0.073,0.648l-0.035,0.151l-0.036,0.127l-0.029,0.093l-0.016,0.045
			l-0.004,0.013l-0.005,0.01L65.861,14.201z M72.46,11.78c0.003,0.02-0.013,0.077-0.021,0.117l-0.012,0.066l-0.004,0.019
			l-0.004,0.014c-0.05,0.15-0.088,0.306-0.146,0.454c-0.213,0.578-0.558,1.168-0.957,1.716c-0.302-0.142-0.599-0.313-0.877-0.527
			c-0.361-0.273-0.684-0.619-0.884-1.036c-0.044-0.107-0.103-0.207-0.128-0.322c-0.03-0.113-0.074-0.229-0.075-0.333
			c-0.014-0.109-0.043-0.201-0.031-0.365l0.002-0.222v-0.047l0.004-0.022l0.013-0.085c0.068-0.454,0.337-0.925,0.727-1.242
			c0.195-0.156,0.419-0.271,0.647-0.326c0.058-0.01,0.115-0.018,0.173-0.03c0.058,0,0.115-0.002,0.172-0.007
			c0.047,0.008,0.09,0.011,0.136,0.009l0.224,0.056l0.004,0.002l0.018,0.007l0.039,0.017c0.024,0.01,0.052,0.015,0.075,0.029
			c0.045,0.034,0.098,0.05,0.143,0.089c0.046,0.036,0.093,0.068,0.137,0.113L71.9,9.987l0.062,0.073
			c0.164,0.197,0.299,0.443,0.388,0.712c0.087,0.269,0.131,0.559,0.122,0.833C72.475,11.679,72.463,11.723,72.46,11.78z"/>
		<polygon fill="#FFFFFF" points="65.494,15.64 65.479,15.633 65.487,15.636 		"/>
	</g>
</g>
<g>
	<path fill="#93243B" stroke="#811F70" stroke-width="1.9578" stroke-miterlimit="10" d="M230.746,30.725
		c0,10.906-6.839,20.214-16.47,23.876l-9.052,12.295l-9.052-12.295c-9.631-3.664-16.487-12.971-16.487-23.876
		c0-14.101,11.438-25.523,25.539-25.523C219.324,5.202,230.746,16.625,230.746,30.725z"/>
	<g>
		<path fill="#FFFFFF" d="M206.776,42.287c-0.016-0.003-0.031-0.003-0.046-0.008c-0.206-0.06-0.299-0.244-0.381-0.447
			c-0.007-0.03-0.01-0.056-0.015-0.086c0,0-0.015-7.962-0.019-9.953c0-0.018,0.003-0.042,0.004-0.06
			c-0.001-0.308,0.275-0.4,0.459-0.461c0.026-0.006,0.052-0.01,0.078-0.015c2.023-0.409,3.876-1.576,5.333-3.384
			c1.78-2.211,2.757-5.132,2.752-8.227c-0.003-1.443-0.217-2.844-0.638-4.174c-0.022-0.069-0.044-0.14-0.067-0.209
			c-0.285-0.614-0.84-1.074-1.514-1.154c-0.039-0.005-0.077-0.01-0.113-0.011c-3.066,0.005-11.179,0.021-14.53,0.027
			c-0.07,0-0.14,0.001-0.206,0.001c-0.806,0.002-1.358,0.464-1.695,1.172c-0.024,0.07-0.046,0.139-0.068,0.209
			c-0.415,1.331-0.624,2.733-0.621,4.175c0.006,3.096,0.994,6.014,2.783,8.218c1.482,1.826,3.369,2.992,5.425,3.378
			c0.013,0.002,0.031,0.007,0.051,0.013c0.265,0.048,0.449,0.231,0.414,0.463c0,0.02,0,0.038,0,0.054
			c0.004,2.004,0.02,9.888,0.02,9.888c0,0.018-0.001,0.042-0.002,0.065c-0.054,0.279-0.176,0.468-0.364,0.518
			c-0.031,0.005-0.043,0.011-0.073,0.016c-3.347,0.118-5.861,0.602-5.86,1.178c0.002,0.659,3.307,1.187,7.383,1.178
			c4.076-0.007,7.38-0.548,7.378-1.207C212.641,42.867,210.125,42.393,206.776,42.287z M197.794,19.677
			c-0.002-1.12,0.147-2.21,0.446-3.247l13.938-0.027c0.302,1.036,0.454,2.125,0.457,3.246c0.011,5.21-3.31,9.456-7.401,9.464
			C201.143,29.122,197.805,24.889,197.794,19.677z"/>
		<path fill="#FFFFFF" d="M210.72,19.612c-0.133-0.153-10.933-0.09-11.029,0.021c-0.096,0.112-0.166,1.166-0.022,2.69
			c0.298,3.154,3.033,5.416,5.553,5.41c2.521-0.004,5.067-2.365,5.528-5.498C210.911,21.137,210.854,19.765,210.72,19.612z"/>
	</g>
</g>
<g>
	<path fill="#603813" stroke="#3A1C00" stroke-width="1.9578" stroke-miterlimit="10" d="M375.226,33.668
		c0,10.906-6.839,20.214-16.47,23.876l-9.052,12.295l-9.052-12.295c-9.631-3.662-16.487-12.97-16.487-23.876
		c0-14.101,11.438-25.523,25.539-25.523C363.803,8.146,375.226,19.568,375.226,33.668z"/>
	<g>
		<path fill="#FFFFFF" d="M367.794,41.971v-3.944c0,0-1.297,0.244-3.263,0.56v4.661C366.497,42.527,367.794,41.971,367.794,41.971z"
			/>
		<path fill="#FFFFFF" d="M334.896,38.027v3.944c0,0,1.67,0.715,4.092,1.574v-4.827C336.566,38.339,334.896,38.027,334.896,38.027z"
			/>
		<path fill="#FFFFFF" d="M351.346,40.003c-3.014,0-6.879-0.423-10.166-0.878v5.349c3.287,1.032,7.152,1.993,10.166,1.993
			c3.279,0,7.551-1.13,10.994-2.257v-5.2C358.896,39.505,354.625,40.003,351.346,40.003z"/>
		<path fill="#FFFFFF" d="M367.794,36.165v-8.762c0,0-1.298-0.243-3.263-0.56v9.321L367.794,36.165L367.794,36.165z"/>
		<path fill="#FFFFFF" d="M334.896,21.267v3.944c0,0,1.67-0.314,4.092-0.692V19.69C336.566,20.551,334.896,21.267,334.896,21.267z"
			/>
		<path fill="#FFFFFF" d="M351.346,23.234c3.271,0,7.546,0.498,10.994,0.994v-5.2c-3.448-1.126-7.724-2.258-10.994-2.258
			c-3.021,0-6.884,0.958-10.166,1.99v5.349C344.462,23.656,348.325,23.234,351.346,23.234z"/>
		<path fill="#FFFFFF" d="M367.794,25.211v-3.944c0,0-1.298-0.556-3.263-1.275v4.66C366.496,24.968,367.794,25.211,367.794,25.211z"
			/>
		<path fill="#FFFFFF" d="M362.345,32.711v4.497c-3.286,0.45-7.146,0.872-10.172,0.872c-3.271,0-7.545-0.499-10.991-0.997V26.307
			c3.278-0.46,7.146-0.882,10.164-0.882c3.271,0,7.543,0.499,10.99,0.997v6.29L362.345,32.711L362.345,32.711z"/>
		<path fill="#FFFFFF" d="M334.896,29.864v3.04h-2.184c-0.444,0-0.811,0.398-0.811,0.885v1.494c0,0.486-0.365,0.883-0.812,0.883
			h-1.16c-0.443,0-0.808-0.397-0.808-0.883v-4.534c0-0.485,0.363-0.885,0.808-0.885H334.896z"/>
		<path fill="#FFFFFF" d="M338.99,26.71v9.894c-2.42-0.383-4.09-0.69-4.09-0.69V27.4C334.9,27.4,336.57,27.093,338.99,26.71z"/>
	</g>
</g>
<g>
	<path fill="#406425" stroke="#2E521A" stroke-width="1.9578" stroke-miterlimit="10" d="M519.704,29.719
		c0,10.906-6.839,20.215-16.47,23.876l-9.052,12.296l-9.052-12.296c-9.632-3.663-16.487-12.97-16.487-23.876
		c0-14.101,11.438-25.523,25.539-25.523C508.281,4.196,519.704,15.619,519.704,29.719z"/>
	<g>
		<path fill="#FFFFFF" d="M484.984,11.2l0.029-0.013l0.824-0.333c1.05-0.425,1.853-0.718,2.103-0.808
			c-0.349-0.861-0.493-1.222-0.549-1.357c0,0-0.934,0.204-2.158,0.7l-0.796,0.322l-0.025,0.016
			c-1.056,0.452-1.741,0.873-1.741,0.873c0.055,0.135,0.2,0.496,0.549,1.357C483.438,11.857,484.091,11.567,484.984,11.2z"/>
		<path fill="#FFFFFF" d="M496.688,21.606c-0.54-0.784-1.702-1.907-2.99-2.561c-0.396-0.201-0.819-0.364-1.257-0.49
			c-0.361-0.104-0.78-0.14-1.059-0.386c-0.239-0.213-0.476-0.548-0.595-0.839c-0.611-1.511-1.806-4.464-2.476-6.116
			c-0.329,0.154-1.035,0.473-2.273,0.974c-1.177,0.477-1.825,0.708-2.139,0.815c0.669,1.653,1.86,4.604,2.474,6.113
			c0.117,0.292,0.179,0.697,0.154,1.018c-0.028,0.369-0.305,0.686-0.49,1.012c-0.228,0.394-0.418,0.807-0.563,1.227
			c-0.472,1.366-0.524,2.979-0.368,3.919c0.247,1.505,8.484,21.374,8.926,22.067c0.24,0.379,0.566,0.754,1.018,0.864
			c0.541,0.135,1.127,0.039,1.673-0.005c1.1-0.088,2.19-0.314,3.229-0.688c1-0.362,2.004-0.774,2.899-1.351
			c0.728-0.466,1.408-1.017,2.056-1.587c0.167-0.147,0.326-0.298,0.479-0.459c0.224-0.231,0.391-0.687,0.23-1.46
			C505.449,42.867,497.555,22.859,496.688,21.606z M497.929,40.519c-2.687,1.086-5.434,1.182-5.434,1.182l-4.805-11.875
			c0,0,2.517-0.426,5.244-1.51c1.525-0.607,3.168-1.673,4.353-2.373c0.439,1.089,4.782,11.822,4.782,11.822
			S500.587,39.443,497.929,40.519z"/>
	</g>
</g>
<g enable-background="new    ">
	<path d="M325.271,91.521l-3.249-12.804h1.747l1.52,6.478c0.381,1.596,0.723,3.191,0.951,4.427h0.037
		c0.209-1.273,0.608-2.793,1.045-4.445l1.71-6.459h1.729l1.558,6.497c0.361,1.52,0.703,3.039,0.893,4.388h0.039
		c0.266-1.405,0.627-2.83,1.025-4.426l1.691-6.459h1.689l-3.628,12.804H332.3l-1.614-6.668c-0.399-1.634-0.666-2.888-0.836-4.18
		h-0.039c-0.228,1.273-0.512,2.527-0.987,4.18L327,91.521H325.271z"/>
	<path d="M340.756,79.743c0.02,0.57-0.398,1.026-1.064,1.026c-0.588,0-1.006-0.456-1.006-1.026c0-0.589,0.437-1.045,1.045-1.045
		C340.357,78.698,340.756,79.154,340.756,79.743z M338.895,91.521v-9.194h1.672v9.194H338.895z"/>
	<path d="M343.34,84.815c0-0.95-0.02-1.729-0.076-2.488h1.482l0.095,1.52h0.038c0.455-0.874,1.52-1.729,3.039-1.729
		c1.273,0,3.249,0.76,3.249,3.913v5.49h-1.672v-5.3c0-1.482-0.551-2.717-2.128-2.717c-1.102,0-1.957,0.778-2.242,1.71
		c-0.075,0.209-0.113,0.493-0.113,0.778v5.528h-1.672V84.815z"/>
	<path d="M354.816,87.229c0.037,2.261,1.48,3.191,3.152,3.191c1.197,0,1.92-0.209,2.546-0.476l0.285,1.197
		c-0.589,0.266-1.596,0.57-3.059,0.57c-2.831,0-4.521-1.862-4.521-4.636s1.634-4.958,4.313-4.958c3.001,0,3.8,2.641,3.8,4.331
		c0,0.342-0.038,0.608-0.057,0.779H354.816z M359.717,86.031c0.02-1.063-0.437-2.717-2.317-2.717c-1.69,0-2.432,1.558-2.565,2.717
		H359.717z"/>
	<path d="M363.404,85.195c0-1.083-0.02-2.014-0.076-2.868h1.463l0.057,1.805h0.076c0.418-1.235,1.425-2.014,2.545-2.014
		c0.19,0,0.323,0.019,0.476,0.057v1.577c-0.171-0.038-0.343-0.058-0.569-0.058c-1.179,0-2.015,0.894-2.242,2.147
		c-0.038,0.228-0.076,0.493-0.076,0.778v4.901h-1.652V85.195z"/>
	<path d="M370.699,82.327l2.014,5.433c0.209,0.608,0.438,1.33,0.589,1.881h0.038c0.171-0.551,0.361-1.254,0.589-1.919l1.823-5.395
		h1.768l-2.508,6.554c-1.197,3.153-2.014,4.769-3.154,5.756c-0.816,0.723-1.633,1.007-2.051,1.083l-0.418-1.405
		c0.418-0.134,0.969-0.399,1.463-0.817c0.455-0.36,1.025-1.007,1.405-1.861c0.076-0.171,0.134-0.305,0.134-0.399
		s-0.039-0.228-0.115-0.437l-3.4-8.473H370.699z"/>
</g>
<g enable-background="new    ">
	<path d="M469.227,85.898c-0.096-1.786-0.209-3.933-0.189-5.528h-0.058c-0.437,1.501-0.969,3.097-1.614,4.863l-2.262,6.212h-1.254
		l-2.07-6.098c-0.607-1.805-1.121-3.458-1.481-4.978h-0.038c-0.038,1.596-0.133,3.742-0.247,5.661l-0.342,5.49h-1.577l0.893-12.804
		h2.109l2.185,6.192c0.532,1.577,0.969,2.982,1.292,4.313h0.057c0.323-1.292,0.779-2.697,1.35-4.313l2.279-6.192h2.108l0.798,12.804
		h-1.615L469.227,85.898z"/>
	<path d="M481.405,89.014c0,0.95,0.019,1.786,0.076,2.508H480l-0.096-1.501h-0.037c-0.438,0.741-1.406,1.71-3.04,1.71
		c-1.444,0-3.173-0.798-3.173-4.027v-5.376h1.672v5.091c0,1.748,0.532,2.926,2.052,2.926c1.121,0,1.899-0.779,2.204-1.52
		c0.095-0.247,0.151-0.551,0.151-0.855v-5.642h1.672V89.014z"/>
	<path d="M484.18,78.033h1.672v13.488h-1.672V78.033z"/>
	<path d="M490.678,79.687v2.641h2.394V83.6h-2.394v4.958c0,1.14,0.323,1.786,1.254,1.786c0.438,0,0.76-0.057,0.969-0.114
		l0.076,1.254c-0.323,0.133-0.836,0.229-1.482,0.229c-0.778,0-1.405-0.247-1.805-0.703c-0.475-0.494-0.646-1.312-0.646-2.394V83.6
		h-1.425v-1.272h1.425v-2.204L490.678,79.687z"/>
	<path d="M496.814,79.743c0.02,0.57-0.398,1.026-1.063,1.026c-0.589,0-1.007-0.456-1.007-1.026c0-0.589,0.438-1.045,1.045-1.045
		C496.416,78.698,496.814,79.154,496.814,79.743z M494.953,91.521v-9.194h1.672v9.194H494.953z"/>
	<path d="M503.274,85.766V87h-4.692v-1.234H503.274z"/>
	<path d="M512.926,89.014c0,0.95,0.02,1.786,0.076,2.508h-1.482l-0.094-1.501h-0.039c-0.437,0.741-1.405,1.71-3.039,1.71
		c-1.443,0-3.173-0.798-3.173-4.027v-5.376h1.672v5.091c0,1.748,0.532,2.926,2.052,2.926c1.121,0,1.9-0.779,2.203-1.52
		c0.096-0.247,0.152-0.551,0.152-0.855v-5.642h1.672V89.014z"/>
	<path d="M515.473,89.812c0.494,0.323,1.368,0.665,2.203,0.665c1.217,0,1.787-0.607,1.787-1.368c0-0.798-0.476-1.234-1.711-1.69
		c-1.652-0.589-2.432-1.501-2.432-2.603c0-1.481,1.197-2.697,3.173-2.697c0.931,0,1.748,0.266,2.261,0.569l-0.418,1.216
		c-0.361-0.228-1.025-0.531-1.881-0.531c-0.988,0-1.539,0.569-1.539,1.254c0,0.76,0.551,1.102,1.748,1.558
		c1.596,0.607,2.413,1.405,2.413,2.773c0,1.614-1.254,2.755-3.438,2.755c-1.007,0-1.938-0.247-2.584-0.627L515.473,89.812z"/>
	<path d="M524.156,87.229c0.037,2.261,1.48,3.191,3.152,3.191c1.197,0,1.92-0.209,2.546-0.476l0.285,1.197
		c-0.589,0.266-1.596,0.57-3.059,0.57c-2.831,0-4.521-1.862-4.521-4.636s1.634-4.958,4.313-4.958c3.001,0,3.8,2.641,3.8,4.331
		c0,0.342-0.038,0.608-0.057,0.779H524.156z M529.057,86.031c0.02-1.063-0.437-2.717-2.317-2.717c-1.69,0-2.432,1.558-2.565,2.717
		H529.057z"/>
</g>
<g enable-background="new    ">
	<path d="M155.179,80.123h-3.895v-1.405h9.479v1.405h-3.913v11.398h-1.672V80.123z"/>
	<path d="M166.009,91.521l-0.133-1.159h-0.057c-0.513,0.723-1.501,1.368-2.812,1.368c-1.862,0-2.812-1.311-2.812-2.641
		c0-2.223,1.976-3.438,5.528-3.42V85.48c0-0.76-0.209-2.128-2.089-2.128c-0.855,0-1.748,0.267-2.394,0.684l-0.38-1.102
		c0.76-0.494,1.862-0.816,3.021-0.816c2.812,0,3.495,1.918,3.495,3.761v3.438c0,0.798,0.038,1.577,0.152,2.204H166.009z
		 M165.762,86.829c-1.824-0.038-3.895,0.285-3.895,2.07c0,1.083,0.722,1.597,1.577,1.597c1.197,0,1.957-0.761,2.223-1.539
		c0.057-0.171,0.095-0.361,0.095-0.532V86.829z"/>
	<path d="M169.847,89.812c0.494,0.323,1.368,0.665,2.204,0.665c1.216,0,1.786-0.607,1.786-1.368c0-0.798-0.475-1.234-1.71-1.69
		c-1.653-0.589-2.432-1.501-2.432-2.603c0-1.481,1.197-2.697,3.172-2.697c0.931,0,1.748,0.266,2.261,0.569l-0.418,1.216
		c-0.361-0.228-1.026-0.531-1.88-0.531c-0.988,0-1.539,0.569-1.539,1.254c0,0.76,0.551,1.102,1.748,1.558
		c1.596,0.607,2.413,1.405,2.413,2.773c0,1.614-1.254,2.755-3.438,2.755c-1.007,0-1.938-0.247-2.584-0.627L169.847,89.812z"/>
	<path d="M179.613,79.687v2.641h2.394V83.6h-2.394v4.958c0,1.14,0.323,1.786,1.254,1.786c0.437,0,0.76-0.057,0.969-0.114
		l0.076,1.254c-0.323,0.133-0.836,0.229-1.482,0.229c-0.779,0-1.406-0.247-1.805-0.703c-0.475-0.494-0.646-1.312-0.646-2.394V83.6
		h-1.425v-1.272h1.425v-2.204L179.613,79.687z"/>
	<path d="M185.75,79.743c0.019,0.57-0.399,1.026-1.064,1.026c-0.589,0-1.007-0.456-1.007-1.026c0-0.589,0.437-1.045,1.045-1.045
		C185.351,78.698,185.75,79.154,185.75,79.743z M183.888,91.521v-9.194h1.672v9.194H183.888z"/>
	<path d="M188.334,84.815c0-0.95-0.019-1.729-0.076-2.488h1.481l0.095,1.52h0.038c0.456-0.874,1.52-1.729,3.04-1.729
		c1.272,0,3.249,0.76,3.249,3.913v5.49h-1.672v-5.3c0-1.482-0.551-2.717-2.128-2.717c-1.102,0-1.957,0.778-2.242,1.71
		c-0.076,0.209-0.114,0.493-0.114,0.778v5.528h-1.672V84.815z"/>
	<path d="M206.801,82.327c-0.038,0.665-0.076,1.405-0.076,2.526v5.338c0,2.109-0.418,3.4-1.311,4.198
		c-0.893,0.836-2.185,1.103-3.344,1.103c-1.102,0-2.317-0.267-3.059-0.76l0.418-1.273c0.608,0.38,1.558,0.722,2.698,0.722
		c1.71,0,2.963-0.893,2.963-3.21v-1.026h-0.038c-0.513,0.855-1.501,1.539-2.926,1.539c-2.28,0-3.914-1.938-3.914-4.483
		c0-3.115,2.033-4.882,4.142-4.882c1.596,0,2.47,0.836,2.869,1.596h0.038l0.076-1.387H206.801z M205.072,85.955
		c0-0.285-0.019-0.531-0.095-0.76c-0.304-0.969-1.121-1.767-2.336-1.767c-1.596,0-2.736,1.349-2.736,3.477
		c0,1.805,0.912,3.306,2.717,3.306c1.026,0,1.957-0.646,2.317-1.71c0.095-0.285,0.133-0.608,0.133-0.893V85.955z"/>
	<path d="M213.584,78.889c0.836-0.171,2.033-0.267,3.172-0.267c1.767,0,2.907,0.323,3.705,1.045c0.646,0.57,1.007,1.444,1.007,2.432
		c0,1.691-1.064,2.812-2.413,3.268v0.058c0.988,0.342,1.577,1.253,1.881,2.583c0.418,1.786,0.722,3.021,0.988,3.515h-1.71
		c-0.209-0.361-0.494-1.463-0.855-3.059c-0.38-1.767-1.063-2.432-2.564-2.488h-1.558v5.547h-1.653V78.889z M215.237,84.721h1.69
		c1.767,0,2.888-0.969,2.888-2.432c0-1.653-1.197-2.375-2.944-2.394c-0.798,0-1.368,0.075-1.634,0.151V84.721z"/>
	<path d="M232.146,86.849c0,3.4-2.355,4.882-4.578,4.882c-2.489,0-4.408-1.824-4.408-4.73c0-3.077,2.014-4.882,4.56-4.882
		C230.36,82.118,232.146,84.036,232.146,86.849z M224.851,86.943c0,2.014,1.159,3.533,2.792,3.533c1.596,0,2.793-1.501,2.793-3.571
		c0-1.558-0.779-3.533-2.755-3.533S224.851,85.195,224.851,86.943z"/>
	<path d="M242.577,86.849c0,3.4-2.355,4.882-4.578,4.882c-2.489,0-4.408-1.824-4.408-4.73c0-3.077,2.014-4.882,4.56-4.882
		C240.792,82.118,242.577,84.036,242.577,86.849z M235.282,86.943c0,2.014,1.159,3.533,2.792,3.533c1.596,0,2.793-1.501,2.793-3.571
		c0-1.558-0.779-3.533-2.755-3.533S235.282,85.195,235.282,86.943z"/>
	<path d="M244.687,84.815c0-0.95-0.019-1.729-0.076-2.488h1.462l0.076,1.481h0.057c0.513-0.874,1.368-1.69,2.887-1.69
		c1.254,0,2.204,0.76,2.603,1.843h0.038c0.285-0.514,0.646-0.912,1.026-1.197c0.551-0.418,1.159-0.646,2.033-0.646
		c1.216,0,3.021,0.798,3.021,3.989v5.414h-1.634v-5.205c0-1.767-0.646-2.831-1.995-2.831c-0.95,0-1.69,0.703-1.976,1.521
		c-0.076,0.228-0.133,0.531-0.133,0.836v5.68h-1.634v-5.509c0-1.463-0.646-2.527-1.919-2.527c-1.045,0-1.805,0.836-2.071,1.672
		c-0.095,0.247-0.133,0.532-0.133,0.817v5.547h-1.634V84.815z"/>
</g>
<g enable-background="new    ">
	<path d="M32.357,91.521l-4.179-12.804h1.786l1.995,6.307c0.551,1.729,1.026,3.286,1.368,4.787h0.038
		c0.361-1.481,0.893-3.097,1.463-4.769l2.166-6.325h1.767l-4.578,12.804H32.357z"/>
	<path d="M41.648,79.743c0.019,0.57-0.399,1.026-1.064,1.026c-0.589,0-1.007-0.456-1.007-1.026c0-0.589,0.437-1.045,1.045-1.045
		C41.25,78.698,41.648,79.154,41.648,79.743z M39.787,91.521v-9.194h1.672v9.194H39.787z"/>
	<path d="M44.232,84.815c0-0.95-0.019-1.729-0.076-2.488h1.481l0.095,1.52h0.038c0.456-0.874,1.52-1.729,3.04-1.729
		c1.272,0,3.249,0.76,3.249,3.913v5.49h-1.672v-5.3c0-1.482-0.551-2.717-2.128-2.717c-1.102,0-1.957,0.778-2.242,1.71
		c-0.076,0.209-0.114,0.493-0.114,0.778v5.528h-1.672V84.815z"/>
	<path d="M55.708,87.229c0.038,2.261,1.481,3.191,3.153,3.191c1.197,0,1.919-0.209,2.545-0.476l0.285,1.197
		c-0.589,0.266-1.596,0.57-3.059,0.57c-2.831,0-4.521-1.862-4.521-4.636s1.634-4.958,4.313-4.958c3.001,0,3.799,2.641,3.799,4.331
		c0,0.342-0.038,0.608-0.057,0.779H55.708z M60.609,86.031c0.019-1.063-0.437-2.717-2.317-2.717c-1.691,0-2.432,1.558-2.565,2.717
		H60.609z"/>
	<path d="M64.904,82.327l2.014,5.433c0.209,0.608,0.437,1.33,0.589,1.881h0.038c0.171-0.551,0.361-1.254,0.589-1.919l1.824-5.395
		h1.767l-2.507,6.554c-1.197,3.153-2.014,4.769-3.154,5.756c-0.817,0.723-1.634,1.007-2.051,1.083l-0.418-1.405
		c0.418-0.134,0.969-0.399,1.462-0.817c0.456-0.36,1.026-1.007,1.406-1.861c0.076-0.171,0.133-0.305,0.133-0.399
		s-0.038-0.228-0.114-0.437l-3.4-8.473H64.904z"/>
	<path d="M78.26,91.521l-0.133-1.159H78.07c-0.513,0.723-1.501,1.368-2.812,1.368c-1.862,0-2.812-1.311-2.812-2.641
		c0-2.223,1.976-3.438,5.528-3.42V85.48c0-0.76-0.209-2.128-2.089-2.128c-0.855,0-1.748,0.267-2.394,0.684l-0.38-1.102
		c0.76-0.494,1.862-0.816,3.021-0.816c2.812,0,3.495,1.918,3.495,3.761v3.438c0,0.798,0.038,1.577,0.152,2.204H78.26z
		 M78.013,86.829c-1.824-0.038-3.895,0.285-3.895,2.07c0,1.083,0.722,1.597,1.577,1.597c1.197,0,1.957-0.761,2.223-1.539
		c0.057-0.171,0.095-0.361,0.095-0.532V86.829z"/>
	<path d="M82.327,85.195c0-1.083-0.019-2.014-0.076-2.868h1.462l0.057,1.805h0.076c0.418-1.235,1.425-2.014,2.545-2.014
		c0.19,0,0.323,0.019,0.475,0.057v1.577c-0.171-0.038-0.342-0.058-0.57-0.058c-1.178,0-2.014,0.894-2.242,2.147
		c-0.038,0.228-0.076,0.493-0.076,0.778v4.901h-1.653V85.195z"/>
	<path d="M96.291,78.033v11.113c0,0.817,0.019,1.748,0.076,2.375h-1.501l-0.076-1.596h-0.038c-0.513,1.025-1.634,1.805-3.135,1.805
		c-2.223,0-3.933-1.881-3.933-4.673c-0.019-3.059,1.881-4.939,4.123-4.939c1.406,0,2.355,0.665,2.773,1.405h0.038v-5.49H96.291z
		 M94.619,86.069c0-0.209-0.019-0.494-0.076-0.703c-0.247-1.063-1.159-1.938-2.413-1.938c-1.729,0-2.754,1.52-2.754,3.553
		c0,1.861,0.912,3.4,2.717,3.4c1.121,0,2.146-0.741,2.451-1.995c0.057-0.228,0.076-0.456,0.076-0.722V86.069z"/>
</g>
<line fill="none" stroke="#999999" stroke-miterlimit="10" x1="24" y1="73.5" x2="529" y2="73.5"/>
</svg>
